{"asset":{"version":"2.0","generator":"VECTARY"},"nodes":[{"translation":[-0.16394558843620372,0.0039992954753713126,-0.16851091739219357],"scale":[0.005518124468723601,0.005518124468723603,0.005518124468723603],"rotation":[-1,0,0,2.220446049250313e-16],"name":"Plane_028-mesh_cms","mesh":0},{"translation":[0,0.021644642017126133,0.2355328147356261],"scale":[0.005518124468723601,0.005518124468723603,0.005518124468723603],"rotation":[-1,0,0,2.220446049250313e-16],"name":"Merged Objects","mesh":1},{"translation":[0.004355606746194215,0.03306975173490959,0.15672884681453594],"scale":[0.005518124468723601,0.005518124468723603,0.005518124468723603],"rotation":[-1,0,0,2.220446049250313e-16],"name":"cactus","mesh":2}],"materials":[{"pbrMetallicRoughness":{"baseColorFactor":[1,1,1,1],"baseColorTexture":{"index":0,"extensions":{"KHR_texture_transform":{"offset":[0,0],"scale":[1,1],"rotation":0}},"texCoord":0},"metallicFactor":0,"roughnessFactor":1},"name":"Nila","emissiveFactor":[0,0,0],"extensions":{},"alphaMode":"OPAQUE","doubleSided":true},{"pbrMetallicRoughness":{"baseColorFactor":[1,1,1,1],"baseColorTexture":{"index":1,"extensions":{"KHR_texture_transform":{"offset":[0,0],"scale":[1,1],"rotation":0}},"texCoord":0},"metallicFactor":0,"roughnessFactor":1},"name":"Denver","emissiveFactor":[0,0,0],"extensions":{},"alphaMode":"OPAQUE","doubleSided":true}],"textures":[{"sampler":0,"source":0},{"sampler":0,"source":1}],"images":[{"uri":"bgr_canyon_terrain.jpg","mimeType":"image/jpeg"},{"uri":"bgr_canyon_cactus.jpg","mimeType":"image/jpeg"}],"samplers":[{"wrapS":10497,"wrapT":10497}],"meshes":[{"primitives":[{"mode":4,"attributes":{"POSITION":1,"NORMAL":2,"TEXCOORD_0":3},"material":0,"indices":0}]},{"primitives":[{"mode":4,"attributes":{"POSITION":5,"NORMAL":6,"TEXCOORD_0":7},"material":0,"indices":4}]},{"primitives":[{"mode":4,"attributes":{"POSITION":9,"NORMAL":10,"TEXCOORD_0":11},"material":1,"indices":8}]}],"accessors":[{"bufferView":0,"byteOffset":0,"componentType":5125,"count":18648,"type":"SCALAR"},{"bufferView":1,"byteOffset":0,"componentType":5126,"count":14888,"max":[64.23469543457031,0.05334451049566269,4.506623268127441],"min":[-4.700243949890137,-0.1837421953678131,-64.03909301757812],"type":"VEC3"},{"bufferView":2,"byteOffset":0,"componentType":5126,"count":14888,"type":"VEC3"},{"bufferView":3,"byteOffset":0,"componentType":5126,"count":14888,"type":"VEC2"},{"bufferView":4,"byteOffset":0,"componentType":5125,"count":74409,"type":"SCALAR"},{"bufferView":5,"byteOffset":0,"componentType":5126,"count":24213,"max":[42.68421936035156,3.895881175994873,85.36698150634766],"min":[-42.68421936035156,-3.895881175994873,0],"type":"VEC3"},{"bufferView":6,"byteOffset":0,"componentType":5126,"count":24213,"type":"VEC3"},{"bufferView":7,"byteOffset":0,"componentType":5126,"count":24213,"type":"VEC2"},{"bufferView":8,"byteOffset":0,"componentType":5125,"count":30981,"type":"SCALAR"},{"bufferView":9,"byteOffset":0,"componentType":5126,"count":6245,"max":[36.525535583496094,5.268872261047363,65.07256317138672],"min":[-36.525535583496094,-5.99293327331543,0],"type":"VEC3"},{"bufferView":10,"byteOffset":0,"componentType":5126,"count":6245,"type":"VEC3"},{"bufferView":11,"byteOffset":0,"componentType":5126,"count":6245,"type":"VEC2"}],"bufferViews":[{"buffer":0,"byteOffset":0,"byteLength":74592,"target":34963},{"buffer":0,"byteOffset":74592,"byteLength":178656,"target":34962},{"buffer":0,"byteOffset":253248,"byteLength":178656,"target":34962},{"buffer":0,"byteOffset":431904,"byteLength":119104,"target":34962},{"buffer":0,"byteOffset":551008,"byteLength":297636,"target":34963},{"buffer":0,"byteOffset":848644,"byteLength":290556,"target":34962},{"buffer":0,"byteOffset":1139200,"byteLength":290556,"target":34962},{"buffer":0,"byteOffset":1429756,"byteLength":193704,"target":34962},{"buffer":0,"byteOffset":1623460,"byteLength":123924,"target":34963},{"buffer":0,"byteOffset":1747384,"byteLength":74940,"target":34962},{"buffer":0,"byteOffset":1822324,"byteLength":74940,"target":34962},{"buffer":0,"byteOffset":1897264,"byteLength":49960,"target":34962}],"scene":0,"scenes":[{"nodes":[0,1,2],"name":"Project Name"}],"extensionsUsed":["KHR_texture_transform"],"buffers":[{"byteLength":1947224,"uri":"ProjectName.bin"}]}